<svg width="363" height="154" viewBox="0 0 363 154" fill="none" xmlns="http://www.w3.org/2000/svg">
<path fill-rule="evenodd" clip-rule="evenodd" d="M57.9131 12.9463C49.1472 20.0669 41.8802 25.9743 41.7642 26.0742C41.6479 26.174 46.2037 30.0317 51.8877 34.6468L62.2221 43.0376L57.6902 46.7217L53.1583 50.4058L42.8028 42.0026L32.4474 33.5993L16.2889 46.7222C7.40139 53.9396 0.0949473 59.9292 0.0521317 60.0323C0.00931605 60.1357 0.711096 60.7987 1.61164 61.5058C2.51219 62.213 7.13996 65.96 11.8956 69.8321L20.5424 76.8724L10.2071 85.2639C4.52254 89.8794 -0.0700771 93.7081 0.000809702 93.7723C0.0719801 93.8365 7.39856 99.7991 16.2818 107.023L32.4338 120.156L42.796 111.747L53.1583 103.338L57.6902 107.023L62.2221 110.707L51.8877 119.098C46.2037 123.713 41.6114 127.541 41.6823 127.606C41.7534 127.671 49.0772 133.636 57.957 140.862L74.1028 154L90.2105 140.927C99.07 133.736 106.319 127.75 106.319 127.623C106.319 127.497 101.694 123.639 96.0422 119.05L85.7662 110.707L90.2981 107.023L94.8301 103.338L105.253 111.796L115.676 120.255L131.838 107.137C140.727 99.923 148 93.9159 148 93.7882C148 93.6604 143.407 89.8286 137.792 85.2728C132.178 80.7171 127.585 76.8968 127.585 76.7833C127.585 76.6696 132.133 72.8782 137.692 68.3575C143.251 63.837 147.797 60.0583 147.794 59.9605C147.791 59.8627 140.531 53.892 131.663 46.6925L115.537 33.6023L105.184 42.004L94.8301 50.4058L90.2981 46.7217L85.7662 43.0376L96.1006 34.6468C101.785 30.0317 106.377 26.2063 106.306 26.146C103.58 23.8267 74.1822 0 74.0472 0C73.9392 0 66.6789 5.82594 57.9131 12.9463ZM86.3282 16.3409L98.5179 26.2373L90.1595 33.0249L81.8011 39.8124L80.0244 38.3829C79.047 37.5967 78.2474 36.8475 78.2474 36.7184C78.2474 36.5891 81.1183 34.1515 84.6269 31.3015L91.0064 26.1195L82.5003 19.2178L73.9942 12.3163L65.6295 19.103C61.029 22.8356 57.2649 25.9936 57.2649 26.1206C57.2649 26.2475 64.8072 32.4743 74.0259 39.9579L90.7867 53.5642L88.9065 55.144L87.026 56.7238L68.2475 41.4813L49.4688 26.2385L61.6593 16.3415C68.3641 10.8981 73.9148 6.44437 73.9942 6.44437C74.0736 6.44437 79.6237 10.8979 86.3282 16.3409ZM78.4688 22.4264C80.8421 24.3809 82.7841 26.0652 82.7841 26.1692C82.7841 26.2732 80.8064 27.9612 78.3892 29.9203L73.9942 33.4822L69.4574 29.8052L64.9207 26.128L69.3831 22.5005C71.8375 20.5053 73.9151 18.8728 73.9996 18.8728C74.0841 18.8728 76.0953 20.4719 78.4688 22.4264ZM47.2681 55.1772L45.3556 56.7296L38.8337 51.4394L32.3122 46.1495L23.8055 53.0517L15.299 59.9536L32.2055 73.678L49.1123 87.4027L47.2466 88.9846L45.3808 90.5664L26.5899 75.3144L7.79864 60.0622L20.1256 50.0546L32.4528 40.0467L40.8166 46.8356L49.1807 53.6248L47.2681 55.1772ZM139.978 59.9923C139.321 60.6176 123.458 73.4198 123.341 73.4198C123.249 73.4198 122.381 72.7708 121.412 71.9772L119.65 70.5348L126.028 65.3623C129.535 62.5173 132.405 60.0846 132.405 59.9561C132.405 59.8277 128.641 56.6683 124.04 52.9354L115.675 46.1486L98.874 59.7842C89.6338 67.2838 81.9423 73.4198 81.7821 73.4198C81.4138 73.4198 78.2474 70.8372 78.2474 70.5369C78.2474 70.4142 86.6364 63.504 96.8895 55.1809L115.532 40.0474L127.785 49.9915C134.524 55.4607 140.011 59.961 139.978 59.9923ZM68.1194 47.8216C69.0114 48.553 69.741 49.2518 69.741 49.3742C69.741 49.4969 63.0759 55.0078 54.9299 61.6208L40.1188 73.6447L38.3424 72.2154C37.3653 71.4294 36.5659 70.6809 36.5659 70.5523C36.5659 70.2436 65.8249 46.4915 66.2048 46.4915C66.3662 46.4915 67.2276 47.0902 68.1194 47.8216ZM36.9238 56.3335L41.3862 59.961L36.8495 63.6382L32.3127 67.3154L27.776 63.6382L23.2392 59.961L27.7017 56.3335C30.1561 54.3382 32.2311 52.7058 32.3127 52.7058C32.3944 52.7058 34.4694 54.3382 36.9238 56.3335ZM78.4566 56.2129C80.8367 58.1418 82.7841 59.8261 82.7841 59.9557C82.7841 60.0852 80.8064 61.7942 78.3892 63.7532L73.9942 67.3151L69.4574 63.6382L64.9207 59.961L69.3831 56.3335C71.8375 54.3382 73.9097 52.7058 73.9876 52.7058C74.0656 52.7058 76.0765 54.2839 78.4566 56.2129ZM120.133 56.269C122.516 58.2288 124.466 59.9131 124.466 60.0118C124.466 60.1106 122.487 61.7946 120.069 63.7542L115.673 67.317L111.132 63.6308L106.591 59.9446L111.062 56.3256C113.522 54.335 115.594 52.7062 115.667 52.706C115.74 52.706 117.749 54.3092 120.133 56.269ZM75.9124 75.322L90.73 87.3512L88.8087 88.899L86.8873 90.4465L72.0099 78.3686L57.1325 66.2907L58.9625 64.7919C59.9694 63.9675 60.8608 63.2929 60.9439 63.2929C61.027 63.2929 67.7627 68.706 75.9124 75.322ZM121.488 78.483L140.2 93.6733L127.868 103.685L115.536 113.698L107.172 106.909L98.8077 100.12L100.72 98.5671L102.633 97.0147L109.154 102.305L115.676 107.594L124.038 100.807C128.637 97.0734 132.401 93.9154 132.402 93.7893C132.404 93.6632 124.847 87.4243 115.609 79.9254L98.8136 66.2909L100.644 64.7919C101.651 63.9675 102.542 63.2929 102.625 63.2929C102.708 63.2929 111.196 70.1286 121.488 78.483ZM57.6902 80.5546L53.158 84.239L48.6212 80.5565L44.0845 76.874L48.6167 73.1896L53.1489 69.5053L57.6857 73.1878L62.2224 76.8703L57.6902 80.5546ZM99.3716 80.5546L94.8394 84.239L90.3027 80.5565L85.7659 76.874L90.2981 73.1896L94.8304 69.5053L99.3671 73.1878L103.904 76.8703L99.3716 80.5546ZM69.741 83.1955C69.741 83.326 61.3488 90.2442 51.0921 98.569L32.4429 113.705L20.2563 103.799C13.5535 98.3499 8.0113 93.8388 7.94042 93.7739C7.77057 93.6185 24.1449 80.3245 24.5058 80.3245C24.6584 80.3245 25.5858 80.9698 26.5664 81.7588L28.349 83.1929L21.8969 88.434L15.4445 93.6749L23.9503 100.579L32.4559 107.483L49.3222 93.7914L66.1881 80.0999L67.9645 81.5289C68.9416 82.3149 69.741 83.065 69.741 83.1955ZM111.422 83.0866C111.422 83.1821 82.8865 106.43 81.7747 107.24C81.6976 107.296 80.807 106.676 79.7955 105.863L77.9567 104.383L92.9011 92.2512L107.846 80.119L109.634 81.536C110.618 82.3156 111.422 83.0132 111.422 83.0866ZM36.9238 90.1664L41.3862 93.7939L36.8495 97.4711L32.3127 101.148L27.9177 97.5862C25.5005 95.6271 23.5228 93.9207 23.5228 93.7941C23.5228 93.5633 32.0331 86.5387 32.3127 86.5387C32.3944 86.5387 34.4694 88.1712 36.9238 90.1664ZM78.4566 90.0458C80.8367 91.9748 82.7841 93.659 82.7841 93.7886C82.7841 93.9182 80.8064 95.6271 78.3892 97.5862L73.9942 101.148L69.4574 97.4711L64.9207 93.7939L69.3831 90.1664C71.8375 88.1712 73.9097 86.5387 73.9876 86.5387C74.0656 86.5387 76.0765 88.1169 78.4566 90.0458ZM120.214 90.107L124.603 93.6754L120.066 97.3579L115.529 101.04L111.055 97.403L106.58 93.7656L111.008 90.1522C113.443 88.1648 115.523 86.5387 115.63 86.5387C115.737 86.5387 117.799 88.1445 120.214 90.107ZM79.8066 112.316L98.519 127.506L86.2434 137.472L73.9681 147.438L61.7886 137.548C55.0898 132.109 49.6091 127.597 49.6091 127.523C49.6091 127.449 53.3434 124.359 57.908 120.655L66.2065 113.922L68.0289 115.414C69.031 116.235 69.7617 116.987 69.6525 117.086C69.5433 117.184 66.6446 119.545 63.2109 122.332L56.9677 127.4L65.547 134.361L74.1266 141.321L82.4249 134.588C86.9891 130.885 90.7235 127.751 90.7235 127.624C90.7235 127.497 83.1655 121.257 73.9278 113.758L57.1322 100.124L58.9625 98.6249C59.9691 97.8005 60.8608 97.1259 60.9436 97.1259C61.0264 97.1259 69.515 103.962 79.8066 112.316ZM78.5321 123.94L82.9214 127.508L78.3846 131.191L73.8479 134.873L69.3916 131.247L64.9351 127.622L69.3624 123.997C71.7972 122.003 73.8691 120.372 73.9661 120.372C74.0634 120.372 76.1179 121.977 78.5321 123.94Z" fill="url(#paint0_linear_6_5)"/>
<mask id="path-2-inside-1_6_5" fill="white">
<path d="M164.832 119V34.52H185.824V119H164.832ZM198.974 119V99.544L240.19 53.208V51.672H200.254V34.52H262.718V55.64L222.91 100.44V101.848H264.382V119H198.974ZM309.493 120.792C302.581 120.792 296.352 119.213 290.805 116.056C285.258 112.899 280.864 108.163 277.621 101.848C274.464 95.448 272.885 87.4267 272.885 77.784C272.885 70.7013 273.781 64.3867 275.573 58.84C277.45 53.2933 280.224 48.6 283.893 44.76C287.562 40.8347 292.042 37.848 297.333 35.8C302.709 33.752 308.896 32.728 315.893 32.728C321.184 32.728 325.962 33.3253 330.229 34.52C334.581 35.7147 338.336 37.4213 341.493 39.64C344.65 41.8587 347.082 44.504 348.789 47.576C350.581 50.648 351.52 54.104 351.605 57.944L332.149 63.96C332.064 60.8027 331.253 58.1573 329.717 56.024C328.181 53.8907 326.133 52.2693 323.573 51.16C321.013 49.9653 318.154 49.368 314.997 49.368C310.56 49.368 306.805 50.392 303.733 52.44C300.746 54.4027 298.442 57.432 296.821 61.528C295.285 65.624 294.517 70.744 294.517 76.888C294.517 81.496 294.944 85.5493 295.797 89.048C296.736 92.4613 298.101 95.32 299.893 97.624C301.685 99.928 303.861 101.677 306.421 102.872C309.066 103.981 312.181 104.536 315.765 104.536C319.349 104.536 322.421 103.981 324.981 102.872C327.626 101.763 329.717 100.056 331.253 97.752C332.789 95.448 333.6 92.504 333.685 88.92H318.709V74.328H354.165V90.712V119H340.085L339.829 97.88H337.269C335.818 102.829 333.941 107.011 331.637 110.424C329.333 113.837 326.389 116.44 322.805 118.232C319.221 119.939 314.784 120.792 309.493 120.792Z"/>
</mask>
<path d="M164.832 119V34.52H185.824V119H164.832ZM198.974 119V99.544L240.19 53.208V51.672H200.254V34.52H262.718V55.64L222.91 100.44V101.848H264.382V119H198.974ZM309.493 120.792C302.581 120.792 296.352 119.213 290.805 116.056C285.258 112.899 280.864 108.163 277.621 101.848C274.464 95.448 272.885 87.4267 272.885 77.784C272.885 70.7013 273.781 64.3867 275.573 58.84C277.45 53.2933 280.224 48.6 283.893 44.76C287.562 40.8347 292.042 37.848 297.333 35.8C302.709 33.752 308.896 32.728 315.893 32.728C321.184 32.728 325.962 33.3253 330.229 34.52C334.581 35.7147 338.336 37.4213 341.493 39.64C344.65 41.8587 347.082 44.504 348.789 47.576C350.581 50.648 351.52 54.104 351.605 57.944L332.149 63.96C332.064 60.8027 331.253 58.1573 329.717 56.024C328.181 53.8907 326.133 52.2693 323.573 51.16C321.013 49.9653 318.154 49.368 314.997 49.368C310.56 49.368 306.805 50.392 303.733 52.44C300.746 54.4027 298.442 57.432 296.821 61.528C295.285 65.624 294.517 70.744 294.517 76.888C294.517 81.496 294.944 85.5493 295.797 89.048C296.736 92.4613 298.101 95.32 299.893 97.624C301.685 99.928 303.861 101.677 306.421 102.872C309.066 103.981 312.181 104.536 315.765 104.536C319.349 104.536 322.421 103.981 324.981 102.872C327.626 101.763 329.717 100.056 331.253 97.752C332.789 95.448 333.6 92.504 333.685 88.92H318.709V74.328H354.165V90.712V119H340.085L339.829 97.88H337.269C335.818 102.829 333.941 107.011 331.637 110.424C329.333 113.837 326.389 116.44 322.805 118.232C319.221 119.939 314.784 120.792 309.493 120.792Z" fill="#D9D9D9" fill-opacity="0.05"/>
<path d="M164.832 119H162.832V121H164.832V119ZM164.832 34.52V32.52H162.832V34.52H164.832ZM185.824 34.52H187.824V32.52H185.824V34.52ZM185.824 119V121H187.824V119H185.824ZM164.832 119H166.832V34.52H164.832H162.832V119H164.832ZM164.832 34.52V36.52H185.824V34.52V32.52H164.832V34.52ZM185.824 34.52H183.824V119H185.824H187.824V34.52H185.824ZM185.824 119V117H164.832V119V121H185.824V119ZM198.974 119H196.974V121H198.974V119ZM198.974 99.544L197.48 98.2148L196.974 98.7832V99.544H198.974ZM240.19 53.208L241.684 54.5372L242.19 53.9688V53.208H240.19ZM240.19 51.672H242.19V49.672H240.19V51.672ZM200.254 51.672H198.254V53.672H200.254V51.672ZM200.254 34.52V32.52H198.254V34.52H200.254ZM262.718 34.52H264.718V32.52H262.718V34.52ZM262.718 55.64L264.213 56.9685L264.718 56.4002V55.64H262.718ZM222.91 100.44L221.415 99.1115L220.91 99.6798V100.44H222.91ZM222.91 101.848H220.91V103.848H222.91V101.848ZM264.382 101.848H266.382V99.848H264.382V101.848ZM264.382 119V121H266.382V119H264.382ZM198.974 119H200.974V99.544H198.974H196.974V119H198.974ZM198.974 99.544L200.468 100.873L241.684 54.5372L240.19 53.208L238.696 51.8788L197.48 98.2148L198.974 99.544ZM240.19 53.208H242.19V51.672H240.19H238.19V53.208H240.19ZM240.19 51.672V49.672H200.254V51.672V53.672H240.19V51.672ZM200.254 51.672H202.254V34.52H200.254H198.254V51.672H200.254ZM200.254 34.52V36.52H262.718V34.52V32.52H200.254V34.52ZM262.718 34.52H260.718V55.64H262.718H264.718V34.52H262.718ZM262.718 55.64L261.223 54.3115L221.415 99.1115L222.91 100.44L224.405 101.768L264.213 56.9685L262.718 55.64ZM222.91 100.44H220.91V101.848H222.91H224.91V100.44H222.91ZM222.91 101.848V103.848H264.382V101.848V99.848H222.91V101.848ZM264.382 101.848H262.382V119H264.382H266.382V101.848H264.382ZM264.382 119V117H198.974V119V121H264.382V119ZM290.805 116.056L291.794 114.318L290.805 116.056ZM277.621 101.848L275.827 102.733L275.835 102.747L275.842 102.762L277.621 101.848ZM275.573 58.84L273.679 58.1988L273.674 58.2119L273.67 58.2251L275.573 58.84ZM283.893 44.76L285.339 46.1417L285.347 46.1338L285.354 46.1258L283.893 44.76ZM297.333 35.8L296.621 33.931L296.611 33.9349L297.333 35.8ZM330.229 34.52L329.69 36.446L329.7 36.4486L330.229 34.52ZM341.493 39.64L340.343 41.2764V41.2764L341.493 39.64ZM348.789 47.576L347.041 48.5473L347.051 48.5656L347.061 48.5837L348.789 47.576ZM351.605 57.944L352.196 59.8547L353.638 59.4088L353.605 57.8996L351.605 57.944ZM332.149 63.96L330.15 64.014L330.221 66.6496L332.74 65.8707L332.149 63.96ZM323.573 51.16L322.727 52.9724L322.752 52.9841L322.778 52.9951L323.573 51.16ZM303.733 52.44L304.831 54.1114L304.842 54.1041L303.733 52.44ZM296.821 61.528L294.961 60.7919L294.955 60.8088L294.948 60.8257L296.821 61.528ZM295.797 89.048L293.854 89.5219L293.861 89.5502L293.869 89.5783L295.797 89.048ZM299.893 97.624L301.472 96.3961V96.3961L299.893 97.624ZM306.421 102.872L305.575 104.684L305.611 104.701L305.648 104.716L306.421 102.872ZM324.981 102.872L324.208 101.028L324.197 101.032L324.186 101.037L324.981 102.872ZM331.253 97.752L332.917 98.8614V98.8614L331.253 97.752ZM333.685 88.92L335.684 88.9676L335.733 86.92H333.685V88.92ZM318.709 88.92H316.709V90.92H318.709V88.92ZM318.709 74.328V72.328H316.709V74.328H318.709ZM354.165 74.328H356.165V72.328H354.165V74.328ZM354.165 119V121H356.165V119H354.165ZM340.085 119L338.085 119.024L338.109 121H340.085V119ZM339.829 97.88L341.829 97.8558L341.805 95.88H339.829V97.88ZM337.269 97.88V95.88H335.771L335.35 97.3175L337.269 97.88ZM331.637 110.424L329.979 109.305V109.305L331.637 110.424ZM322.805 118.232L323.665 120.038L323.682 120.029L323.699 120.021L322.805 118.232ZM309.493 120.792V118.792C302.898 118.792 297.015 117.289 291.794 114.318L290.805 116.056L289.816 117.794C295.689 121.137 302.264 122.792 309.493 122.792V120.792ZM290.805 116.056L291.794 114.318C286.623 111.374 282.486 106.944 279.4 100.934L277.621 101.848L275.842 102.762C279.241 109.382 283.894 114.423 289.816 117.794L290.805 116.056ZM277.621 101.848L279.415 100.963C276.432 94.9175 274.885 87.2222 274.885 77.784H272.885H270.885C270.885 87.6311 272.495 95.9785 275.827 102.733L277.621 101.848ZM272.885 77.784H274.885C274.885 70.8668 275.76 64.7655 277.476 59.4549L275.573 58.84L273.67 58.2251C271.802 64.0078 270.885 70.5359 270.885 77.784H272.885ZM275.573 58.84L277.467 59.4812C279.261 54.1825 281.891 49.7497 285.339 46.1417L283.893 44.76L282.447 43.3783C278.556 47.4502 275.64 52.4042 273.679 58.1988L275.573 58.84ZM283.893 44.76L285.354 46.1258C288.806 42.4326 293.029 39.6106 298.055 37.6651L297.333 35.8L296.611 33.9349C291.056 36.0853 286.318 39.2367 282.432 43.3942L283.893 44.76ZM297.333 35.8L298.045 37.669C303.15 35.7241 309.088 34.728 315.893 34.728V32.728V30.728C308.703 30.728 302.268 31.7799 296.621 33.931L297.333 35.8ZM315.893 32.728V34.728C321.036 34.728 325.629 35.3088 329.69 36.4459L330.229 34.52L330.768 32.5941C326.296 31.3418 321.332 30.728 315.893 30.728V32.728ZM330.229 34.52L329.7 36.4486C333.866 37.5925 337.403 39.2105 340.343 41.2764L341.493 39.64L342.643 38.0036C339.268 35.6322 335.296 33.8369 330.758 32.5913L330.229 34.52ZM341.493 39.64L340.343 41.2764C343.278 43.3387 345.495 45.7644 347.041 48.5473L348.789 47.576L350.537 46.6047C348.67 43.2436 346.023 40.3787 342.643 38.0036L341.493 39.64ZM348.789 47.576L347.061 48.5837C348.669 51.3397 349.527 54.4595 349.605 57.9884L351.605 57.944L353.605 57.8996C353.512 53.7485 352.493 49.9563 350.517 46.5683L348.789 47.576ZM351.605 57.944L351.014 56.0333L331.558 62.0493L332.149 63.96L332.74 65.8707L352.196 59.8547L351.605 57.944ZM332.149 63.96L334.148 63.906C334.054 60.4299 333.154 57.375 331.34 54.8554L329.717 56.024L328.094 57.1926C329.352 58.9397 330.073 61.1754 330.15 64.014L332.149 63.96ZM329.717 56.024L331.34 54.8554C329.58 52.4112 327.238 50.5685 324.368 49.3249L323.573 51.16L322.778 52.9951C325.028 53.9702 326.782 55.3702 328.094 57.1926L329.717 56.024ZM323.573 51.16L324.419 49.3476C321.564 48.0155 318.412 47.368 314.997 47.368V49.368V51.368C317.897 51.368 320.462 51.9151 322.727 52.9724L323.573 51.16ZM314.997 49.368V47.368C310.246 47.368 306.086 48.468 302.624 50.7759L303.733 52.44L304.842 54.1041C307.524 52.316 310.874 51.368 314.997 51.368V49.368ZM303.733 52.44L302.635 50.7686C299.231 53.0052 296.699 56.4033 294.961 60.7919L296.821 61.528L298.681 62.2641C300.186 58.4607 302.262 55.8001 304.831 54.1114L303.733 52.44ZM296.821 61.528L294.948 60.8257C293.302 65.2172 292.517 70.5938 292.517 76.888H294.517H296.517C296.517 70.8942 297.268 66.0308 298.694 62.2302L296.821 61.528ZM294.517 76.888H292.517C292.517 81.6137 292.954 85.832 293.854 89.5219L295.797 89.048L297.74 88.5741C296.933 85.2666 296.517 81.3783 296.517 76.888H294.517ZM295.797 89.048L293.869 89.5783C294.862 93.1923 296.331 96.3015 298.314 98.8519L299.893 97.624L301.472 96.3961C299.871 94.3385 298.609 91.7303 297.725 88.5177L295.797 89.048ZM299.893 97.624L298.314 98.8519C300.294 101.397 302.718 103.351 305.575 104.684L306.421 102.872L307.267 101.06C305.004 100.004 303.076 98.4586 301.472 96.3961L299.893 97.624ZM306.421 102.872L305.648 104.716C308.591 105.951 311.979 106.536 315.765 106.536V104.536V102.536C312.383 102.536 309.542 102.012 307.194 101.028L306.421 102.872ZM315.765 104.536V106.536C319.548 106.536 322.905 105.951 325.776 104.707L324.981 102.872L324.186 101.037C321.937 102.011 319.15 102.536 315.765 102.536V104.536ZM324.981 102.872L325.754 104.716C328.749 103.461 331.155 101.505 332.917 98.8614L331.253 97.752L329.589 96.6426C328.279 98.6071 326.504 100.065 324.208 101.028L324.981 102.872ZM331.253 97.752L332.917 98.8614C334.717 96.1619 335.593 92.8203 335.684 88.9676L333.685 88.92L331.686 88.8724C331.607 92.1877 330.861 94.7341 329.589 96.6426L331.253 97.752ZM333.685 88.92V86.92H318.709V88.92V90.92H333.685V88.92ZM318.709 88.92H320.709V74.328H318.709H316.709V88.92H318.709ZM318.709 74.328V76.328H354.165V74.328V72.328H318.709V74.328ZM354.165 74.328H352.165V90.712H354.165H356.165V74.328H354.165ZM354.165 90.712H352.165V119H354.165H356.165V90.712H354.165ZM354.165 119V117H340.085V119V121H354.165V119ZM340.085 119L342.085 118.976L341.829 97.8558L339.829 97.88L337.829 97.9042L338.085 119.024L340.085 119ZM339.829 97.88V95.88H337.269V97.88V99.88H339.829V97.88ZM337.269 97.88L335.35 97.3175C333.943 102.117 332.143 106.099 329.979 109.305L331.637 110.424L333.295 111.543C335.739 107.922 337.694 103.542 339.188 98.4425L337.269 97.88ZM331.637 110.424L329.979 109.305C327.862 112.441 325.178 114.809 321.911 116.443L322.805 118.232L323.699 120.021C327.6 118.071 330.804 115.233 333.295 111.543L331.637 110.424ZM322.805 118.232L321.945 116.426C318.704 117.97 314.581 118.792 309.493 118.792V120.792V122.792C314.987 122.792 319.738 121.907 323.665 120.038L322.805 118.232Z" fill="#ACE9FF" mask="url(#path-2-inside-1_6_5)"/>
<defs>
<linearGradient id="paint0_linear_6_5" x1="12.6301" y1="41.8017" x2="132.879" y2="138.335" gradientUnits="userSpaceOnUse">
<stop offset="0.100962" stop-color="#00E5FF"/>
<stop offset="0.769231" stop-color="#9F3AED"/>
<stop offset="1" stop-color="#893DC3"/>
</linearGradient>
</defs>
</svg>
