<svg width="148" height="154" viewBox="0 0 148 154" fill="none" xmlns="http://www.w3.org/2000/svg">
<path fill-rule="evenodd" clip-rule="evenodd" d="M57.9131 12.9463C49.1472 20.0669 41.8802 25.9743 41.7642 26.0742C41.6479 26.174 46.2037 30.0317 51.8877 34.6468L62.2221 43.0376L57.6902 46.7217L53.1583 50.4058L42.8028 42.0026L32.4474 33.5993L16.2889 46.7222C7.40139 53.9396 0.0949473 59.9292 0.0521317 60.0323C0.00931605 60.1357 0.711096 60.7987 1.61164 61.5058C2.51219 62.213 7.13996 65.96 11.8956 69.8321L20.5424 76.8724L10.2071 85.2639C4.52254 89.8794 -0.0700771 93.7081 0.000809702 93.7723C0.0719801 93.8365 7.39856 99.7991 16.2818 107.023L32.4338 120.156L42.796 111.747L53.1583 103.338L57.6902 107.023L62.2221 110.707L51.8877 119.098C46.2037 123.713 41.6114 127.541 41.6823 127.606C41.7534 127.671 49.0772 133.636 57.957 140.862L74.1028 154L90.2105 140.927C99.07 133.736 106.319 127.75 106.319 127.623C106.319 127.497 101.694 123.639 96.0422 119.05L85.7662 110.707L90.2981 107.023L94.8301 103.338L105.253 111.796L115.676 120.255L131.838 107.137C140.727 99.923 148 93.9159 148 93.7882C148 93.6604 143.407 89.8286 137.792 85.2728C132.178 80.7171 127.585 76.8968 127.585 76.7833C127.585 76.6696 132.133 72.8782 137.692 68.3575C143.251 63.837 147.797 60.0583 147.794 59.9605C147.791 59.8627 140.531 53.892 131.663 46.6925L115.537 33.6023L105.184 42.004L94.8301 50.4058L90.2981 46.7217L85.7662 43.0376L96.1006 34.6468C101.785 30.0317 106.377 26.2063 106.306 26.146C103.58 23.8267 74.1822 0 74.0472 0C73.9392 0 66.6789 5.82594 57.9131 12.9463ZM86.3282 16.3409L98.5179 26.2373L90.1595 33.0249L81.8011 39.8124L80.0244 38.3829C79.047 37.5967 78.2474 36.8475 78.2474 36.7184C78.2474 36.5891 81.1183 34.1515 84.6269 31.3015L91.0064 26.1195L82.5003 19.2178L73.9942 12.3163L65.6295 19.103C61.029 22.8356 57.2649 25.9936 57.2649 26.1206C57.2649 26.2475 64.8072 32.4743 74.0259 39.9579L90.7867 53.5642L88.9065 55.144L87.026 56.7238L68.2475 41.4813L49.4688 26.2385L61.6593 16.3415C68.3641 10.8981 73.9148 6.44437 73.9942 6.44437C74.0736 6.44437 79.6237 10.8979 86.3282 16.3409ZM78.4688 22.4264C80.8421 24.3809 82.7841 26.0652 82.7841 26.1692C82.7841 26.2732 80.8064 27.9612 78.3892 29.9203L73.9942 33.4822L69.4574 29.8052L64.9207 26.128L69.3831 22.5005C71.8375 20.5053 73.9151 18.8728 73.9996 18.8728C74.0841 18.8728 76.0953 20.4719 78.4688 22.4264ZM47.2681 55.1772L45.3556 56.7296L38.8337 51.4394L32.3122 46.1495L23.8055 53.0517L15.299 59.9536L32.2055 73.678L49.1123 87.4027L47.2466 88.9846L45.3808 90.5664L26.5899 75.3144L7.79864 60.0622L20.1256 50.0546L32.4528 40.0467L40.8166 46.8356L49.1807 53.6248L47.2681 55.1772ZM139.978 59.9923C139.321 60.6176 123.458 73.4198 123.341 73.4198C123.249 73.4198 122.381 72.7708 121.412 71.9772L119.65 70.5348L126.028 65.3623C129.535 62.5173 132.405 60.0846 132.405 59.9561C132.405 59.8277 128.641 56.6683 124.04 52.9354L115.675 46.1486L98.874 59.7842C89.6338 67.2838 81.9423 73.4198 81.7821 73.4198C81.4138 73.4198 78.2474 70.8372 78.2474 70.5369C78.2474 70.4142 86.6364 63.504 96.8895 55.1809L115.532 40.0474L127.785 49.9915C134.524 55.4607 140.011 59.961 139.978 59.9923ZM68.1194 47.8216C69.0114 48.553 69.741 49.2518 69.741 49.3742C69.741 49.4969 63.0759 55.0078 54.9299 61.6208L40.1188 73.6447L38.3424 72.2154C37.3653 71.4294 36.5659 70.6809 36.5659 70.5523C36.5659 70.2436 65.8249 46.4915 66.2048 46.4915C66.3662 46.4915 67.2276 47.0902 68.1194 47.8216ZM36.9238 56.3335L41.3862 59.961L36.8495 63.6382L32.3127 67.3154L27.776 63.6382L23.2392 59.961L27.7017 56.3335C30.1561 54.3382 32.2311 52.7058 32.3127 52.7058C32.3944 52.7058 34.4694 54.3382 36.9238 56.3335ZM78.4566 56.2129C80.8367 58.1418 82.7841 59.8261 82.7841 59.9557C82.7841 60.0852 80.8064 61.7942 78.3892 63.7532L73.9942 67.3151L69.4574 63.6382L64.9207 59.961L69.3831 56.3335C71.8375 54.3382 73.9097 52.7058 73.9876 52.7058C74.0656 52.7058 76.0765 54.2839 78.4566 56.2129ZM120.133 56.269C122.516 58.2288 124.466 59.9131 124.466 60.0118C124.466 60.1106 122.487 61.7946 120.069 63.7542L115.673 67.317L111.132 63.6308L106.591 59.9446L111.062 56.3256C113.522 54.335 115.594 52.7062 115.667 52.706C115.74 52.706 117.749 54.3092 120.133 56.269ZM75.9124 75.322L90.73 87.3512L88.8087 88.899L86.8873 90.4465L72.0099 78.3686L57.1325 66.2907L58.9625 64.7919C59.9694 63.9675 60.8608 63.2929 60.9439 63.2929C61.027 63.2929 67.7627 68.706 75.9124 75.322ZM121.488 78.483L140.2 93.6733L127.868 103.685L115.536 113.698L107.172 106.909L98.8077 100.12L100.72 98.5671L102.633 97.0147L109.154 102.305L115.676 107.594L124.038 100.807C128.637 97.0734 132.401 93.9154 132.402 93.7893C132.404 93.6632 124.847 87.4243 115.609 79.9254L98.8136 66.2909L100.644 64.7919C101.651 63.9675 102.542 63.2929 102.625 63.2929C102.708 63.2929 111.196 70.1286 121.488 78.483ZM57.6902 80.5546L53.158 84.239L48.6212 80.5565L44.0845 76.874L48.6167 73.1896L53.1489 69.5053L57.6857 73.1878L62.2224 76.8703L57.6902 80.5546ZM99.3716 80.5546L94.8394 84.239L90.3027 80.5565L85.7659 76.874L90.2981 73.1896L94.8304 69.5053L99.3671 73.1878L103.904 76.8703L99.3716 80.5546ZM69.741 83.1955C69.741 83.326 61.3488 90.2442 51.0921 98.569L32.4429 113.705L20.2563 103.799C13.5535 98.3499 8.0113 93.8388 7.94042 93.7739C7.77057 93.6185 24.1449 80.3245 24.5058 80.3245C24.6584 80.3245 25.5858 80.9698 26.5664 81.7588L28.349 83.1929L21.8969 88.434L15.4445 93.6749L23.9503 100.579L32.4559 107.483L49.3222 93.7914L66.1881 80.0999L67.9645 81.5289C68.9416 82.3149 69.741 83.065 69.741 83.1955ZM111.422 83.0866C111.422 83.1821 82.8865 106.43 81.7747 107.24C81.6976 107.296 80.807 106.676 79.7955 105.863L77.9567 104.383L92.9011 92.2512L107.846 80.119L109.634 81.536C110.618 82.3156 111.422 83.0132 111.422 83.0866ZM36.9238 90.1664L41.3862 93.7939L36.8495 97.4711L32.3127 101.148L27.9177 97.5862C25.5005 95.6271 23.5228 93.9207 23.5228 93.7941C23.5228 93.5633 32.0331 86.5387 32.3127 86.5387C32.3944 86.5387 34.4694 88.1712 36.9238 90.1664ZM78.4566 90.0458C80.8367 91.9748 82.7841 93.659 82.7841 93.7886C82.7841 93.9182 80.8064 95.6271 78.3892 97.5862L73.9942 101.148L69.4574 97.4711L64.9207 93.7939L69.3831 90.1664C71.8375 88.1712 73.9097 86.5387 73.9876 86.5387C74.0656 86.5387 76.0765 88.1169 78.4566 90.0458ZM120.214 90.107L124.603 93.6754L120.066 97.3579L115.529 101.04L111.055 97.403L106.58 93.7656L111.008 90.1522C113.443 88.1648 115.523 86.5387 115.63 86.5387C115.737 86.5387 117.799 88.1445 120.214 90.107ZM79.8066 112.316L98.519 127.506L86.2434 137.472L73.9681 147.438L61.7886 137.548C55.0898 132.109 49.6091 127.597 49.6091 127.523C49.6091 127.449 53.3434 124.359 57.908 120.655L66.2065 113.922L68.0289 115.414C69.031 116.235 69.7617 116.987 69.6525 117.086C69.5433 117.184 66.6446 119.545 63.2109 122.332L56.9677 127.4L65.547 134.361L74.1266 141.321L82.4249 134.588C86.9891 130.885 90.7235 127.751 90.7235 127.624C90.7235 127.497 83.1655 121.257 73.9278 113.758L57.1322 100.124L58.9625 98.6249C59.9691 97.8005 60.8608 97.1259 60.9436 97.1259C61.0264 97.1259 69.515 103.962 79.8066 112.316ZM78.5321 123.94L82.9214 127.508L78.3846 131.191L73.8479 134.873L69.3916 131.247L64.9351 127.622L69.3624 123.997C71.7972 122.003 73.8691 120.372 73.9661 120.372C74.0634 120.372 76.1179 121.977 78.5321 123.94Z" fill="url(#paint0_linear_6_7)"/>
<defs>
<linearGradient id="paint0_linear_6_7" x1="12.6301" y1="41.8017" x2="132.879" y2="138.335" gradientUnits="userSpaceOnUse">
<stop offset="0.100962" stop-color="#00E5FF"/>
<stop offset="0.769231" stop-color="#9F3AED"/>
<stop offset="1" stop-color="#893DC3"/>
</linearGradient>
</defs>
</svg>
